<svg width="8" height="30" viewBox="0 0 8 30" fill="none" xmlns="http://www.w3.org/2000/svg">
<path d="M6.59554 0.461662C6.58213 0.193606 6.35354 -0.012311 6.08594 0.000583152C5.81788 0.0139957 5.61144 0.242138 5.62486 0.510193L6.03993 8.81201H4.5227V0.48596C4.5227 0.21758 4.30512 0 4.03674 0C3.76836 0 3.55078 0.21758 3.55078 0.48596V8.81208H2.03355L2.44856 0.510258C2.46197 0.242202 2.25554 0.0140604 1.98748 0.000647947C1.71949 -0.0129589 1.49129 0.193671 1.47787 0.461727L0.988932 10.241C0.962302 10.7736 1.22142 11.2882 1.66513 11.584L2.2523 11.9754C2.41137 12.0815 2.50292 12.2589 2.49729 12.45L2.03906 27.9461C2.02396 28.4902 2.22463 29.0047 2.60407 29.3949C2.98357 29.7851 3.49234 30 4.03668 30C4.58102 30 5.08978 29.7851 5.46928 29.3949C5.84872 29.0047 6.04945 28.4902 6.03429 27.9452L5.57613 12.45C5.57049 12.2589 5.66211 12.0815 5.82112 11.9754L6.40829 11.584C6.85193 11.2882 7.11105 10.7736 7.08442 10.241L6.59554 0.461662ZM5.86926 10.7752L5.28209 11.1666C4.84233 11.4598 4.58911 11.9503 4.60473 12.4786L5.06289 27.973C5.07067 28.2525 4.96758 28.5168 4.77268 28.7172C4.57771 28.9176 4.31639 29.028 4.03681 29.028C3.75722 29.028 3.49584 28.9176 3.30093 28.7172C3.10603 28.5168 3.00294 28.2525 3.01072 27.9739L3.46888 12.4786C3.4845 11.9503 3.23128 11.4598 2.79152 11.1666L2.20435 10.7752C2.04385 10.6682 1.95016 10.4821 1.95982 10.2895L1.98508 9.78393H6.08859L6.11386 10.2895C6.12345 10.4821 6.02976 10.6682 5.86926 10.7752Z" fill="black"/>
</svg>
