<svg width="7" height="30" viewBox="0 0 7 30" fill="none" xmlns="http://www.w3.org/2000/svg">
<path d="M4.77635 0H4.77428C3.98553 0 3.30661 0.588789 3.19503 1.36963L0.871554 17.6341C0.76082 18.4091 1.25009 19.1368 2.00961 19.3267L2.78851 19.5214L2.36968 27.8977C2.34201 28.4508 2.53698 28.9764 2.91868 29.3776C3.30039 29.7789 3.81558 29.9999 4.36938 29.9999C5.47342 29.9999 6.37154 29.1018 6.37154 27.9978V1.59524C6.37154 0.715592 5.65594 0 4.77635 0ZM5.39962 27.9977C5.39962 28.5658 4.93743 29.0279 4.36938 29.0279C4.08441 29.0279 3.81933 28.9142 3.62287 28.7078C3.42642 28.5014 3.32611 28.2309 3.34037 27.9463L3.77909 19.1711C3.79069 18.9393 3.63674 18.7316 3.41158 18.6754L2.24527 18.3838C1.97054 18.3151 1.79359 18.0519 1.83363 17.7716L4.15717 1.50706C4.20071 1.20201 4.46605 0.97192 4.77422 0.97192H4.77629C5.11996 0.97192 5.39962 1.25151 5.39962 1.59524V27.9977Z" fill="black"/>
</svg>
