<svg width="9" height="30" viewBox="0 0 9 30" fill="none" xmlns="http://www.w3.org/2000/svg">
<path d="M4.74313 0C3.73065 0 2.32901 0.508314 1.40153 2.93002C0.831081 4.41939 0.628662 6.17435 0.628662 7.22461C0.628662 8.67056 1.36661 9.98402 2.60263 10.7382C2.94643 10.948 3.14613 11.3025 3.1368 11.6864L2.74019 27.9475C2.72691 28.4918 2.929 29.006 3.30929 29.3957C3.6895 29.7853 4.19872 29.9999 4.74313 29.9999C5.28753 29.9999 5.79682 29.7853 6.17703 29.3957C6.55732 29.0061 6.75941 28.4918 6.74613 27.9475L6.34945 11.6865C6.34012 11.3025 6.53982 10.948 6.88362 10.7382C8.11971 9.98402 8.85759 8.6705 8.85759 7.22461C8.85759 6.17435 8.65517 4.41945 8.08472 2.93002C7.15731 0.508314 5.75567 0 4.74313 0ZM6.37732 9.90847C5.74317 10.2954 5.36017 10.9857 5.37779 11.7101L5.7744 27.9711C5.78127 28.2514 5.67721 28.5162 5.4814 28.7168C5.28559 28.9175 5.02337 29.0279 4.74306 29.0279C4.46276 29.0279 4.20054 28.9175 4.00473 28.7169C3.80892 28.5163 3.70486 28.2514 3.71173 27.9711L4.10833 11.7101C4.12602 10.9858 3.74302 10.2954 3.10881 9.90847C2.16436 9.33225 1.60052 8.3289 1.60052 7.22461C1.60052 5.18455 2.36866 0.97192 4.74306 0.97192C7.11747 0.97192 7.88561 5.18455 7.88561 7.22461C7.88567 8.3289 7.32189 9.33225 6.37732 9.90847Z" fill="black"/>
</svg>
